<?xml version="1.0" encoding="UTF-8"?>
<svg width="64" height="128" viewBox="0 0 64 128" xmlns="http://www.w3.org/2000/svg">
  <!-- Life Support Filters - 1x2 essential ship component -->
  <defs>
    <linearGradient id="filterGrad" x1="0%" y1="0%" x2="100%" y2="0%">
      <stop offset="0%" style="stop-color:#E0E8F0"/>
      <stop offset="50%" style="stop-color:#C8D0E0"/>
      <stop offset="100%" style="stop-color:#E0E8F0"/>
    </linearGradient>
    <linearGradient id="frameGrad" x1="0%" y1="0%" x2="0%" y2="100%">
      <stop offset="0%" style="stop-color:#5080A0"/>
      <stop offset="100%" style="stop-color:#406080"/>
    </linearGradient>
  </defs>
  
  <!-- Filter frame -->
  <rect x="8" y="8" width="48" height="112" rx="4" fill="url(#frameGrad)" stroke="#305070" stroke-width="2"/>
  
  <!-- Filter media (pleated) -->
  <g fill="url(#filterGrad)" stroke="#A0B0C0" stroke-width="0.5">
    <path d="M12 20 L32 16 L52 20 L52 30 L32 26 L12 30 Z"/>
    <path d="M12 34 L32 30 L52 34 L52 44 L32 40 L12 44 Z"/>
    <path d="M12 48 L32 44 L52 48 L52 58 L32 54 L12 58 Z"/>
    <path d="M12 62 L32 58 L52 62 L52 72 L32 68 L12 72 Z"/>
    <path d="M12 76 L32 72 L52 76 L52 86 L32 82 L12 86 Z"/>
    <path d="M12 90 L32 86 L52 90 L52 100 L32 96 L12 100 Z"/>
    <path d="M12 104 L32 100 L52 104 L52 114 L32 110 L12 114 Z"/>
  </g>
  
  <!-- Top intake grill -->
  <rect x="16" y="10" width="32" height="6" fill="#304050"/>
  <line x1="20" y1="10" x2="20" y2="16" stroke="#506070" stroke-width="2"/>
  <line x1="28" y1="10" x2="28" y2="16" stroke="#506070" stroke-width="2"/>
  <line x1="36" y1="10" x2="36" y2="16" stroke="#506070" stroke-width="2"/>
  <line x1="44" y1="10" x2="44" y2="16" stroke="#506070" stroke-width="2"/>
  
  <!-- Status indicator -->
  <circle cx="32" cy="118" r="3" fill="#40C060"/>
  
  <!-- O2 label -->
  <text x="32" y="8" font-family="Arial" font-size="6" fill="#80A0C0" text-anchor="middle">O₂</text>
</svg>
