<?xml version="1.0" encoding="UTF-8"?>
<svg width="64" height="64" viewBox="0 0 64 64" xmlns="http://www.w3.org/2000/svg">
  <!-- Plastic Polymers - 1x1 manufacturing material -->
  <defs>
    <linearGradient id="plasticGrad" x1="0%" y1="0%" x2="100%" y2="100%">
      <stop offset="0%" style="stop-color:#E8E8F0"/>
      <stop offset="50%" style="stop-color:#C8C8D8"/>
      <stop offset="100%" style="stop-color:#A8A8B8"/>
    </linearGradient>
  </defs>
  
  <!-- Pellet container/bag -->
  <path d="M12 52 L8 18 Q8 12 14 12 L50 12 Q56 12 56 18 L52 52 Q52 56 48 56 L16 56 Q12 56 12 52" 
        fill="#404858" stroke="#303040" stroke-width="2"/>
  
  <!-- Plastic pellets (visible through semi-transparent bag) -->
  <circle cx="20" cy="24" r="5" fill="url(#plasticGrad)" opacity="0.9"/>
  <circle cx="32" cy="20" r="5" fill="url(#plasticGrad)" opacity="0.9"/>
  <circle cx="44" cy="24" r="5" fill="url(#plasticGrad)" opacity="0.9"/>
  <circle cx="16" cy="34" r="5" fill="url(#plasticGrad)" opacity="0.9"/>
  <circle cx="28" cy="32" r="5" fill="url(#plasticGrad)" opacity="0.9"/>
  <circle cx="40" cy="30" r="5" fill="url(#plasticGrad)" opacity="0.9"/>
  <circle cx="48" cy="36" r="5" fill="url(#plasticGrad)" opacity="0.9"/>
  <circle cx="22" cy="44" r="5" fill="url(#plasticGrad)" opacity="0.9"/>
  <circle cx="36" cy="42" r="5" fill="url(#plasticGrad)" opacity="0.9"/>
  <circle cx="46" cy="46" r="5" fill="url(#plasticGrad)" opacity="0.9"/>
  
  <!-- Bag seal -->
  <rect x="14" y="8" width="36" height="6" fill="#505868" rx="2"/>
  
  <!-- Recycling symbol -->
  <text x="32" y="50" font-family="Arial" font-size="10" fill="#80A080" text-anchor="middle">♻</text>
</svg>
