<?xml version="1.0" encoding="UTF-8"?>
<svg width="64" height="64" viewBox="0 0 64 64" xmlns="http://www.w3.org/2000/svg">
  <!-- Power Converters - 1x1 electrical component -->
  <defs>
    <linearGradient id="converterGrad" x1="0%" y1="0%" x2="0%" y2="100%">
      <stop offset="0%" style="stop-color:#404850"/>
      <stop offset="100%" style="stop-color:#282C30"/>
    </linearGradient>
  </defs>
  
  <!-- Main housing -->
  <rect x="8" y="12" width="48" height="44" rx="4" fill="url(#converterGrad)" stroke="#202428" stroke-width="2"/>
  
  <!-- Heat sink fins -->
  <g fill="#505860">
    <rect x="10" y="14" width="4" height="40"/>
    <rect x="17" y="14" width="4" height="40"/>
    <rect x="24" y="14" width="4" height="40"/>
    <rect x="31" y="14" width="4" height="40"/>
    <rect x="38" y="14" width="4" height="40"/>
    <rect x="45" y="14" width="4" height="40"/>
  </g>
  
  <!-- Top panel -->
  <rect x="12" y="8" width="40" height="8" fill="#383C40" rx="2"/>
  
  <!-- Input connector -->
  <rect x="14" y="4" width="12" height="6" fill="#606870" rx="1"/>
  <circle cx="17" cy="7" r="2" fill="#202428"/>
  <circle cx="23" cy="7" r="2" fill="#202428"/>
  
  <!-- Output connector -->
  <rect x="38" y="4" width="12" height="6" fill="#606870" rx="1"/>
  <circle cx="41" cy="7" r="2" fill="#202428"/>
  <circle cx="47" cy="7" r="2" fill="#202428"/>
  
  <!-- Status LEDs -->
  <circle cx="20" cy="12" r="2" fill="#40C060"/>
  <circle cx="32" cy="12" r="2" fill="#4080E0"/>
  <circle cx="44" cy="12" r="2" fill="#E08040"/>
  
  <!-- Power symbol -->
  <text x="32" y="40" font-family="Arial" font-size="14" font-weight="bold" fill="#708090" text-anchor="middle">⚡</text>
</svg>
