<svg xmlns="http://www.w3.org/2000/svg" viewBox="0 0 64 64">
  <defs>
    <linearGradient id="cpu_grad" x1="0%" y1="0%" x2="100%" y2="100%">
      <stop offset="0%" style="stop-color:#2D3748"/>
      <stop offset="100%" style="stop-color:#1A202C"/>
    </linearGradient>
  </defs>
  <!-- CPU base -->
  <rect x="12" y="18" width="40" height="28" rx="2" fill="url(#cpu_grad)" stroke="#4A5568" stroke-width="2"/>
  <!-- CPU die -->
  <rect x="20" y="24" width="24" height="16" fill="#1E3A5F" stroke="#3182CE" stroke-width="1"/>
  <!-- Circuit pattern on die -->
  <path d="M24 28 L36 28 M24 32 L40 32 M24 36 L32 36" stroke="#63B3ED" stroke-width="1"/>
  <!-- Pins - top -->
  <line x1="18" y1="18" x2="18" y2="12" stroke="#D4A574" stroke-width="2"/>
  <line x1="26" y1="18" x2="26" y2="12" stroke="#D4A574" stroke-width="2"/>
  <line x1="34" y1="18" x2="34" y2="12" stroke="#D4A574" stroke-width="2"/>
  <line x1="42" y1="18" x2="42" y2="12" stroke="#D4A574" stroke-width="2"/>
  <!-- Pins - bottom -->
  <line x1="18" y1="46" x2="18" y2="52" stroke="#D4A574" stroke-width="2"/>
  <line x1="26" y1="46" x2="26" y2="52" stroke="#D4A574" stroke-width="2"/>
  <line x1="34" y1="46" x2="34" y2="52" stroke="#D4A574" stroke-width="2"/>
  <line x1="42" y1="46" x2="42" y2="52" stroke="#D4A574" stroke-width="2"/>
  <!-- Status LED -->
  <circle cx="16" cy="23" r="2" fill="#48BB78"/>
</svg>