<svg xmlns="http://www.w3.org/2000/svg" width="64" height="64" viewBox="0 0 64 64">
  <!-- Raw Textiles - Fabric rolls and bundles -->
  <defs>
    <linearGradient id="fabric1" x1="0%" y1="0%" x2="100%" y2="100%">
      <stop offset="0%" style="stop-color:#cc8844"/>
      <stop offset="100%" style="stop-color:#886633"/>
    </linearGradient>
    <linearGradient id="fabric2" x1="0%" y1="0%" x2="100%" y2="100%">
      <stop offset="0%" style="stop-color:#446688"/>
      <stop offset="100%" style="stop-color:#334455"/>
    </linearGradient>
    <linearGradient id="fabric3" x1="0%" y1="0%" x2="100%" y2="100%">
      <stop offset="0%" style="stop-color:#668844"/>
      <stop offset="100%" style="stop-color:#445522"/>
    </linearGradient>
  </defs>
  <!-- Roll 1 - Brown/tan (back) -->
  <ellipse cx="24" cy="22" rx="14" ry="8" fill="url(#fabric1)" stroke="#664422" stroke-width="1"/>
  <rect x="10" y="22" width="28" height="28" fill="url(#fabric1)" stroke="#664422" stroke-width="1"/>
  <ellipse cx="24" cy="50" rx="14" ry="8" fill="#aa7744" stroke="#664422" stroke-width="1"/>
  <!-- Fabric texture lines -->
  <line x1="14" y1="26" x2="14" y2="46" stroke="#997755" stroke-width="1" opacity="0.5"/>
  <line x1="24" y1="26" x2="24" y2="46" stroke="#997755" stroke-width="1" opacity="0.5"/>
  <line x1="34" y1="26" x2="34" y2="46" stroke="#997755" stroke-width="1" opacity="0.5"/>
  <!-- Roll 2 - Blue (front right) -->
  <ellipse cx="46" cy="32" rx="10" ry="6" fill="url(#fabric2)" stroke="#223344" stroke-width="1"/>
  <rect x="36" y="32" width="20" height="20" fill="url(#fabric2)" stroke="#223344" stroke-width="1"/>
  <ellipse cx="46" cy="52" rx="10" ry="6" fill="#557799" stroke="#223344" stroke-width="1"/>
  <!-- Thread detail -->
  <path d="M8,18 Q12,14 16,18" fill="none" stroke="#aa8855" stroke-width="2"/>
  <path d="M52,28 Q56,24 58,30" fill="none" stroke="#6688aa" stroke-width="2"/>
</svg>
