<?xml version="1.0" encoding="UTF-8"?>
<svg width="64" height="64" viewBox="0 0 64 64" xmlns="http://www.w3.org/2000/svg">
  <!-- Rubber Compounds - 1x1 industrial material -->
  <defs>
    <linearGradient id="rubberGrad" x1="0%" y1="0%" x2="0%" y2="100%">
      <stop offset="0%" style="stop-color:#383838"/>
      <stop offset="50%" style="stop-color:#282828"/>
      <stop offset="100%" style="stop-color:#1A1A1A"/>
    </linearGradient>
  </defs>
  
  <!-- Stacked rubber sheets -->
  <!-- Bottom sheet -->
  <rect x="8" y="44" width="48" height="8" rx="2" fill="#1A1A1A" stroke="#101010" stroke-width="1"/>
  
  <!-- Middle sheets -->
  <rect x="10" y="36" width="44" height="8" rx="2" fill="url(#rubberGrad)"/>
  <rect x="12" y="28" width="40" height="8" rx="2" fill="url(#rubberGrad)"/>
  <rect x="14" y="20" width="36" height="8" rx="2" fill="url(#rubberGrad)"/>
  
  <!-- Top sheet -->
  <rect x="16" y="12" width="32" height="8" rx="2" fill="#383838" stroke="#202020" stroke-width="1"/>
  
  <!-- Surface texture marks -->
  <g stroke="#404040" stroke-width="0.5" opacity="0.5">
    <line x1="20" y1="14" x2="44" y2="14"/>
    <line x1="18" y1="22" x2="46" y2="22"/>
    <line x1="16" y1="30" x2="48" y2="30"/>
    <line x1="14" y1="38" x2="50" y2="38"/>
    <line x1="12" y1="46" x2="52" y2="46"/>
  </g>
  
  <!-- Sheet edges highlight -->
  <line x1="16" y1="12" x2="48" y2="12" stroke="#505050" stroke-width="1"/>
  <line x1="14" y1="20" x2="50" y2="20" stroke="#484848" stroke-width="1"/>
  <line x1="12" y1="28" x2="52" y2="28" stroke="#404040" stroke-width="1"/>
  <line x1="10" y1="36" x2="54" y2="36" stroke="#383838" stroke-width="1"/>
  
  <!-- Count label -->
  <circle cx="52" cy="16" r="8" fill="#C04040"/>
  <text x="52" y="20" font-family="Arial" font-size="10" font-weight="bold" fill="white" text-anchor="middle">5</text>
</svg>
