<svg xmlns="http://www.w3.org/2000/svg" viewBox="0 0 64 80">
  <!-- Wall Panel / Control Panel -->
  <rect x="2" y="2" width="60" height="76" rx="3" fill="#3a3a3a" stroke="#2a2a2a" stroke-width="2"/>
  <!-- Display screen -->
  <rect x="8" y="8" width="48" height="24" fill="#0a1a2a" stroke="#1a2a3a" stroke-width="1"/>
  <!-- Screen content -->
  <rect x="12" y="12" width="20" height="8" fill="#2a4a6a" opacity="0.6"/>
  <rect x="12" y="22" width="28" height="6" fill="#2a6a4a" opacity="0.4"/>
  <!-- Status indicators -->
  <circle cx="46" cy="16" r="3" fill="#4aea6a"/>
  <circle cx="46" cy="26" r="3" fill="#eaea4a"/>
  <!-- Button row 1 -->
  <rect x="8" y="38" width="14" height="10" rx="2" fill="#4a4a4a"/>
  <rect x="25" y="38" width="14" height="10" rx="2" fill="#4a4a4a"/>
  <rect x="42" y="38" width="14" height="10" rx="2" fill="#4a4a4a"/>
  <!-- Button row 2 -->
  <rect x="8" y="52" width="14" height="10" rx="2" fill="#4a4a4a"/>
  <rect x="25" y="52" width="14" height="10" rx="2" fill="#4a4a4a"/>
  <rect x="42" y="52" width="14" height="10" rx="2" fill="#5a3a3a"/>
  <!-- Slider -->
  <rect x="8" y="66" width="48" height="6" fill="#2a2a2a" rx="2"/>
  <rect x="24" y="64" width="12" height="10" fill="#5a5a5a" rx="2"/>
</svg>
