<svg xmlns="http://www.w3.org/2000/svg" viewBox="0 0 48 48">
  <!-- Floor Grate -->
  <rect x="0" y="0" width="48" height="48" fill="#1a1a1a"/>
  <!-- Grate pattern -->
  <rect x="2" y="2" width="10" height="10" fill="#2a2a2a" stroke="#1a1a1a" stroke-width="1"/>
  <rect x="14" y="2" width="10" height="10" fill="#2a2a2a" stroke="#1a1a1a" stroke-width="1"/>
  <rect x="26" y="2" width="10" height="10" fill="#2a2a2a" stroke="#1a1a1a" stroke-width="1"/>
  <rect x="38" y="2" width="8" height="10" fill="#2a2a2a" stroke="#1a1a1a" stroke-width="1"/>
  
  <rect x="2" y="14" width="10" height="10" fill="#2a2a2a" stroke="#1a1a1a" stroke-width="1"/>
  <rect x="14" y="14" width="10" height="10" fill="#2a2a2a" stroke="#1a1a1a" stroke-width="1"/>
  <rect x="26" y="14" width="10" height="10" fill="#2a2a2a" stroke="#1a1a1a" stroke-width="1"/>
  <rect x="38" y="14" width="8" height="10" fill="#2a2a2a" stroke="#1a1a1a" stroke-width="1"/>
  
  <rect x="2" y="26" width="10" height="10" fill="#2a2a2a" stroke="#1a1a1a" stroke-width="1"/>
  <rect x="14" y="26" width="10" height="10" fill="#2a2a2a" stroke="#1a1a1a" stroke-width="1"/>
  <rect x="26" y="26" width="10" height="10" fill="#2a2a2a" stroke="#1a1a1a" stroke-width="1"/>
  <rect x="38" y="26" width="8" height="10" fill="#2a2a2a" stroke="#1a1a1a" stroke-width="1"/>
  
  <rect x="2" y="38" width="10" height="8" fill="#2a2a2a" stroke="#1a1a1a" stroke-width="1"/>
  <rect x="14" y="38" width="10" height="8" fill="#2a2a2a" stroke="#1a1a1a" stroke-width="1"/>
  <rect x="26" y="38" width="10" height="8" fill="#2a2a2a" stroke="#1a1a1a" stroke-width="1"/>
  <rect x="38" y="38" width="8" height="8" fill="#2a2a2a" stroke="#1a1a1a" stroke-width="1"/>
</svg>
