<svg xmlns="http://www.w3.org/2000/svg" viewBox="0 0 96 64">
  <!-- Server Rack / Equipment Rack -->
  <rect x="2" y="2" width="92" height="60" rx="2" fill="#2a2a2a" stroke="#1a1a1a" stroke-width="2"/>
  <!-- Server units -->
  <rect x="6" y="6" width="84" height="12" fill="#1a1a1a" stroke="#0a0a0a" stroke-width="1"/>
  <rect x="6" y="20" width="84" height="12" fill="#1a1a1a" stroke="#0a0a0a" stroke-width="1"/>
  <rect x="6" y="34" width="84" height="12" fill="#1a1a1a" stroke="#0a0a0a" stroke-width="1"/>
  <rect x="6" y="48" width="84" height="12" fill="#1a1a1a" stroke="#0a0a0a" stroke-width="1"/>
  <!-- Status LEDs -->
  <circle cx="14" cy="12" r="2" fill="#4aea6a"/>
  <circle cx="22" cy="12" r="2" fill="#4aea6a"/>
  <circle cx="30" cy="12" r="2" fill="#eaea4a"/>
  
  <circle cx="14" cy="26" r="2" fill="#4aea6a"/>
  <circle cx="22" cy="26" r="2" fill="#4aea6a"/>
  <circle cx="30" cy="26" r="2" fill="#4aea6a"/>
  
  <circle cx="14" cy="40" r="2" fill="#ea4a4a"/>
  <circle cx="22" cy="40" r="2" fill="#4aea6a"/>
  <circle cx="30" cy="40" r="2" fill="#4aea6a"/>
  
  <circle cx="14" cy="54" r="2" fill="#4aea6a"/>
  <circle cx="22" cy="54" r="2" fill="#4aea6a"/>
  <circle cx="30" cy="54" r="2" fill="#4aea6a"/>
  <!-- Vent patterns -->
  <rect x="50" y="8" width="36" height="2" fill="#0a0a0a" opacity="0.5"/>
  <rect x="50" y="12" width="36" height="2" fill="#0a0a0a" opacity="0.5"/>
  <rect x="50" y="22" width="36" height="2" fill="#0a0a0a" opacity="0.5"/>
  <rect x="50" y="26" width="36" height="2" fill="#0a0a0a" opacity="0.5"/>
  <rect x="50" y="36" width="36" height="2" fill="#0a0a0a" opacity="0.5"/>
  <rect x="50" y="40" width="36" height="2" fill="#0a0a0a" opacity="0.5"/>
  <rect x="50" y="50" width="36" height="2" fill="#0a0a0a" opacity="0.5"/>
  <rect x="50" y="54" width="36" height="2" fill="#0a0a0a" opacity="0.5"/>
</svg>
