<svg xmlns="http://www.w3.org/2000/svg" width="64" height="64" viewBox="0 0 64 64">
  <!-- Neural Interface - Bio-tech connector -->
  <defs>
    <linearGradient id="neuralGrad" x1="0%" y1="0%" x2="100%" y2="100%">
      <stop offset="0%" style="stop-color:#aa88ff"/>
      <stop offset="50%" style="stop-color:#7744cc"/>
      <stop offset="100%" style="stop-color:#5522aa"/>
    </linearGradient>
  </defs>
  
  <!-- Main chip body -->
  <rect x="16" y="16" width="32" height="32" fill="url(#neuralGrad)" stroke="#3a2a6a" stroke-width="2" rx="3"/>
  
  <!-- Neural network pattern -->
  <circle cx="26" cy="26" r="3" fill="#cc99ff" opacity="0.8"/>
  <circle cx="38" cy="26" r="3" fill="#cc99ff" opacity="0.8"/>
  <circle cx="32" cy="32" r="3" fill="#dd88ff" opacity="0.9"/>
  <circle cx="26" cy="38" r="3" fill="#cc99ff" opacity="0.8"/>
  <circle cx="38" cy="38" r="3" fill="#cc99ff" opacity="0.8"/>
  
  <!-- Neural connections -->
  <line x1="26" y1="26" x2="32" y2="32" stroke="#ffccff" stroke-width="1.5" opacity="0.6"/>
  <line x1="38" y1="26" x2="32" y2="32" stroke="#ffccff" stroke-width="1.5" opacity="0.6"/>
  <line x1="32" y1="32" x2="26" y2="38" stroke="#ffccff" stroke-width="1.5" opacity="0.6"/>
  <line x1="32" y1="32" x2="38" y2="38" stroke="#ffccff" stroke-width="1.5" opacity="0.6"/>
  <line x1="26" y1="26" x2="38" y2="26" stroke="#ffccff" stroke-width="1" opacity="0.4"/>
  <line x1="26" y1="38" x2="38" y2="38" stroke="#ffccff" stroke-width="1" opacity="0.4"/>
  
  <!-- Bio-organic elements -->
  <path d="M 20 32 Q 22 28 24 32" stroke="#88ff88" stroke-width="1.5" fill="none" opacity="0.5"/>
  <path d="M 44 32 Q 42 36 40 32" stroke="#88ff88" stroke-width="1.5" fill="none" opacity="0.5"/>
  
  <!-- Connector pins -->
  <rect x="14" y="28" width="2" height="8" fill="#6a6a8a" stroke="#4a4a6a" stroke-width="1"/>
  <rect x="48" y="28" width="2" height="8" fill="#6a6a8a" stroke="#4a4a6a" stroke-width="1"/>
  <rect x="28" y="14" width="8" height="2" fill="#6a6a8a" stroke="#4a4a6a" stroke-width="1"/>
  <rect x="28" y="48" width="8" height="2" fill="#6a6a8a" stroke="#4a4a6a" stroke-width="1"/>
  
  <!-- Neural pulse effects -->
  <circle cx="32" cy="32" r="1.5" fill="#ffffff" opacity="0.9"/>
  <circle cx="26" cy="26" r="1" fill="#ffffff" opacity="0.7"/>
  <circle cx="38" cy="38" r="1" fill="#ffffff" opacity="0.7"/>
  
  <!-- Circuit traces -->
  <path d="M 20 20 L 24 20" stroke="#9966ee" stroke-width="0.8" opacity="0.5"/>
  <path d="M 40 44 L 44 44" stroke="#9966ee" stroke-width="0.8" opacity="0.5"/>
</svg>
