<svg xmlns="http://www.w3.org/2000/svg" viewBox="0 0 64 64">
  <!-- Cargo Crate - standard shipping container -->
  <defs>
    <linearGradient id="crateTop" x1="0%" y1="0%" x2="0%" y2="100%">
      <stop offset="0%" style="stop-color:#8B7355"/>
      <stop offset="100%" style="stop-color:#6B5344"/>
    </linearGradient>
    <linearGradient id="crateFront" x1="0%" y1="0%" x2="0%" y2="100%">
      <stop offset="0%" style="stop-color:#6B5344"/>
      <stop offset="100%" style="stop-color:#4A3A2A"/>
    </linearGradient>
    <linearGradient id="crateSide" x1="0%" y1="0%" x2="100%" y2="0%">
      <stop offset="0%" style="stop-color:#5B4334"/>
      <stop offset="100%" style="stop-color:#4A3A2A"/>
    </linearGradient>
  </defs>
  <!-- Shadow -->
  <ellipse cx="32" cy="58" rx="24" ry="4" fill="#1A1A1A" opacity="0.3"/>
  <!-- Crate body - 3D effect -->
  <!-- Front face -->
  <rect x="10" y="24" width="36" height="32" fill="url(#crateFront)" rx="2"/>
  <!-- Top face -->
  <polygon points="10,24 18,16 54,16 46,24" fill="url(#crateTop)"/>
  <!-- Side face -->
  <polygon points="46,24 54,16 54,48 46,56" fill="url(#crateSide)"/>
  <!-- Slat details on front -->
  <line x1="10" y1="32" x2="46" y2="32" stroke="#3A2A1A" stroke-width="1"/>
  <line x1="10" y1="40" x2="46" y2="40" stroke="#3A2A1A" stroke-width="1"/>
  <line x1="10" y1="48" x2="46" y2="48" stroke="#3A2A1A" stroke-width="1"/>
  <!-- Vertical slats -->
  <line x1="22" y1="24" x2="22" y2="56" stroke="#3A2A1A" stroke-width="1"/>
  <line x1="34" y1="24" x2="34" y2="56" stroke="#3A2A1A" stroke-width="1"/>
  <!-- Metal corner brackets -->
  <rect x="8" y="22" width="6" height="6" fill="#5A5A6A" rx="1"/>
  <rect x="8" y="52" width="6" height="6" fill="#5A5A6A" rx="1"/>
  <rect x="42" y="22" width="6" height="6" fill="#5A5A6A" rx="1"/>
  <rect x="42" y="52" width="6" height="6" fill="#5A5A6A" rx="1"/>
  <!-- Shipping label -->
  <rect x="26" y="36" width="12" height="8" fill="#E8E8D0" rx="1"/>
  <line x1="28" y1="39" x2="36" y2="39" stroke="#333" stroke-width="0.5"/>
  <line x1="28" y1="41" x2="34" y2="41" stroke="#333" stroke-width="0.5"/>
</svg>