<svg xmlns="http://www.w3.org/2000/svg" viewBox="0 0 64 64">
  <!-- Supply Cabinet - wall-mounted storage -->
  <defs>
    <linearGradient id="cabinetMain" x1="0%" y1="0%" x2="0%" y2="100%">
      <stop offset="0%" style="stop-color:#7A8A7A"/>
      <stop offset="100%" style="stop-color:#5A6A5A"/>
    </linearGradient>
    <linearGradient id="cabinetDoor" x1="0%" y1="0%" x2="0%" y2="100%">
      <stop offset="0%" style="stop-color:#8A9A8A"/>
      <stop offset="100%" style="stop-color:#6A7A6A"/>
    </linearGradient>
  </defs>
  <!-- Shadow -->
  <ellipse cx="32" cy="58" rx="22" ry="4" fill="#1A1A1A" opacity="0.3"/>
  <!-- Cabinet body -->
  <rect x="8" y="12" width="48" height="44" fill="url(#cabinetMain)" rx="3"/>
  <!-- Cabinet frame border -->
  <rect x="8" y="12" width="48" height="44" fill="none" stroke="#4A5A4A" stroke-width="2" rx="3"/>
  <!-- Left door -->
  <rect x="12" y="16" width="18" height="36" fill="url(#cabinetDoor)" rx="2"/>
  <rect x="26" y="30" width="2" height="8" fill="#4A4A4A" rx="1"/>
  <!-- Right door -->
  <rect x="34" y="16" width="18" height="36" fill="url(#cabinetDoor)" rx="2"/>
  <rect x="36" y="30" width="2" height="8" fill="#4A4A4A" rx="1"/>
  <!-- Door seam -->
  <line x1="32" y1="16" x2="32" y2="52" stroke="#4A5A4A" stroke-width="1"/>
  <!-- Medical cross (supply marking) -->
  <g fill="#8BC88B" opacity="0.6">
    <rect x="19" y="22" width="4" height="12"/>
    <rect x="17" y="26" width="8" height="4"/>
  </g>
  <g fill="#8BC88B" opacity="0.6">
    <rect x="41" y="22" width="4" height="12"/>
    <rect x="39" y="26" width="8" height="4"/>
  </g>
  <!-- Hinges -->
  <circle cx="14" cy="20" r="2" fill="#5A5A5A"/>
  <circle cx="14" cy="48" r="2" fill="#5A5A5A"/>
  <circle cx="50" cy="20" r="2" fill="#5A5A5A"/>
  <circle cx="50" cy="48" r="2" fill="#5A5A5A"/>
  <!-- Label plate -->
  <rect x="24" y="6" width="16" height="6" fill="#E8E8D8" rx="1"/>
  <text x="32" y="11" font-size="4" fill="#333" text-anchor="middle" font-family="monospace">SUPPLY</text>
</svg>